<svg id="Capa_1" enable-background="new 0 0 512 512" height="512" viewBox="0 0 512 512" width="512" xmlns="http://www.w3.org/2000/svg" xmlns:xlink="http://www.w3.org/1999/xlink"><linearGradient id="SVGID_1_" gradientUnits="userSpaceOnUse" x1="279" x2="279" y1="512" y2="46"><stop offset="0" stop-color="#c3ffe8"/><stop offset=".9973" stop-color="#f0fff4"/></linearGradient><linearGradient id="SVGID_2_" gradientUnits="userSpaceOnUse" x1="256" x2="256" y1="512" y2="0"><stop offset="0" stop-color="#00b59c"/><stop offset="1" stop-color="#9cffac"/></linearGradient><g><g><g><path d="m497 482h-241c-8.291 0-15 6.709-15 15s6.709 15 15 15h241c8.291 0 15-6.709 15-15s-6.709-15-15-15zm-376-301c-41.367 0-75 33.647-75 75s33.633 75 75 75 75-33.647 75-75-33.633-75-75-75zm270 150c41.367 0 75-33.647 75-75s-33.633-75-75-75-75 33.647-75 75 33.633 75 75 75zm-60-210c0-41.353-33.633-75-75-75s-75 33.647-75 75 33.633 75 75 75 75-33.647 75-75zm0 270c0-41.353-33.633-75-75-75s-75 33.647-75 75 33.633 75 75 75 75-33.647 75-75zm-15-135c0-33.091-26.924-60-60-60s-60 26.909-60 60 26.924 60 60 60 60-26.909 60-60z" fill="url(#SVGID_1_)"/></g></g><g><g><path d="m256 0c-140.61 0-256 115.39-256 256s115.39 256 256 256 256-115.39 256-256-115.39-256-256-256zm-135 316c-33.091 0-60-26.909-60-60s26.909-60 60-60 60 26.909 60 60-26.909 60-60 60zm135 135c-33.091 0-60-26.909-60-60s26.909-60 60-60 60 26.909 60 60-26.909 60-60 60zm-45-195c0-24.814 20.186-45 45-45s45 20.186 45 45-20.186 45-45 45-45-20.186-45-45zm45-75c-33.091 0-60-26.909-60-60s26.909-60 60-60 60 26.909 60 60-26.909 60-60 60zm135 135c-33.091 0-60-26.909-60-60s26.909-60 60-60 60 26.909 60 60-26.909 60-60 60z" fill="url(#SVGID_2_)"/></g></g></g></svg>